<svg width="16" height="16" viewBox="0 0 16 16" fill="none" xmlns="http://www.w3.org/2000/svg">
<path fill-rule="evenodd" clip-rule="evenodd" d="M3.5 4.83333C3.5 4.09695 4.09695 3.5 4.83333 3.5C5.56971 3.5 6.16667 4.09695 6.16667 4.83333C6.16667 5.56971 5.56971 6.16667 4.83333 6.16667C4.09695 6.16667 3.5 5.56971 3.5 4.83333Z" fill="#CDE2DB"/>
<path fill-rule="evenodd" clip-rule="evenodd" d="M7.95033 1H8.04967C9.50027 0.999987 10.6568 0.999974 11.5635 1.12188C12.4998 1.24776 13.269 1.5145 13.8773 2.12276C14.4855 2.73102 14.7523 3.50022 14.8781 4.43647C15 5.34323 15 6.49973 15 7.9504V8.0496C15 9.50027 15 10.6567 14.8781 11.5635C14.7523 12.4998 14.4855 13.269 13.8773 13.8773C13.269 14.4855 12.4998 14.7523 11.5635 14.8781C10.6567 15 9.50027 15 8.0496 15H7.9504C6.49973 15 5.34323 15 4.43647 14.8781C3.50022 14.7523 2.73102 14.4855 2.12276 13.8773C1.5145 13.269 1.24776 12.4998 1.12188 11.5635C0.999974 10.6568 0.999987 9.50027 1 8.04967V7.95033C0.999987 6.49971 0.999974 5.34323 1.12188 4.43647C1.24776 3.50022 1.5145 2.73102 2.12276 2.12276C2.73102 1.5145 3.50022 1.24776 4.43647 1.12188C5.34323 0.999974 6.49971 0.999987 7.95033 1ZM4.61414 2.44333C3.82573 2.54933 3.3848 2.74633 3.06557 3.06557C2.74633 3.3848 2.54933 3.82573 2.44333 4.61414C2.33475 5.42172 2.33333 6.48837 2.33333 8C2.33333 9.5116 2.33475 10.5783 2.44333 11.3859C2.54933 12.1743 2.74633 12.6152 3.06557 12.9345C3.3848 13.2537 3.82573 13.4507 4.61414 13.5567C5.42172 13.6653 6.48837 13.6667 8 13.6667C9.5116 13.6667 10.5783 13.6653 11.3859 13.5567C12.1743 13.4507 12.6152 13.2537 12.9345 12.9345C13.2537 12.6152 13.4507 12.1743 13.5567 11.3859C13.6653 10.5783 13.6667 9.5116 13.6667 8C13.6667 6.48837 13.6653 5.42172 13.5567 4.61414C13.4507 3.82573 13.2537 3.3848 12.9345 3.06557C12.6152 2.74633 12.1743 2.54933 11.3859 2.44333C10.5783 2.33475 9.5116 2.33333 8 2.33333C6.48837 2.33333 5.42172 2.33475 4.61414 2.44333Z" fill="#CDE2DB"/>
<path d="M14.6933 8.46846C13.3953 7.63133 12.1586 7.28059 10.975 7.32999C9.79685 7.37919 8.73752 7.82213 7.78459 8.45926C6.17228 9.53719 4.75421 11.2573 3.48451 12.7973C3.28352 13.0411 3.08621 13.2805 2.89247 13.512L2.33325 14.0006L3.14857 14.5557C3.72471 14.7944 4.39854 14.8989 5.17291 14.9498C5.94427 15.0005 6.87339 15.0005 7.97825 15.0005H8.04999C9.50065 15.0005 10.6571 15.0005 11.5639 14.8786C12.5001 14.7527 13.2693 14.486 13.8776 13.8777C14.4106 13.3447 14.6831 12.6908 14.8267 11.9027C14.9667 11.1351 14.9929 10.1883 14.9987 9.03213L15.0005 8.66659L14.6933 8.46846Z" fill="#CDE2DB"/>
</svg>
