<svg width="32" height="32" viewBox="0 0 32 32" fill="none" xmlns="http://www.w3.org/2000/svg">
<g id="Logo">
<path id="Vector" d="M4.9675 6.06709L0 11.0346L4.9675 16.0021L9.93501 11.0346L4.9675 6.06709Z" fill="#6F58C9"/>
<path id="Vector_2" d="M9.94307 11.0326L4.97369 6.06319C6.29059 7.38056 7.0304 9.16705 7.0304 11.0298C7.0304 12.8925 6.29059 14.679 4.97369 15.9964L0.00427246 20.9602L4.97369 25.9296L9.94307 20.9602L14.9124 15.9964L9.94307 11.0326Z" fill="#8783D1"/>
<path id="Vector_3" d="M27.027 25.9404L31.9943 20.9729L27.027 16.0054L22.0594 20.9729L27.027 25.9404Z" fill="#8783D1"/>
<path id="Vector_4" d="M22.0602 20.9714L27.0296 25.9352C25.7127 24.6178 24.9729 22.8313 24.9729 20.9686C24.9729 19.1058 25.7127 17.3194 27.0296 16.002L31.9991 11.0326L27.0296 6.06319L22.0602 11.0326L17.0964 16.002L22.0602 20.9714Z" fill="#8783D1"/>
<path id="Vector_5" d="M6.06677 27.0325L11.0343 32L16.0018 27.0325L11.0343 22.065L6.06677 27.0325Z" fill="#6F58C9"/>
<path id="Vector_6" d="M11.0351 22.0575L6.06567 27.0269C7.38305 25.71 9.1695 24.9702 11.0323 24.9702C12.895 24.9702 14.6815 25.71 15.9988 27.0269L20.9627 31.9964L25.9321 27.0269L20.9627 22.0575L15.9988 17.0937L11.0351 22.0575Z" fill="#8783D1"/>
<path id="Vector_7" d="M25.9402 4.96754L20.9726 0L16.0051 4.9675L20.9726 9.93504L25.9402 4.96754Z" fill="#8783D1"/>
<path id="Vector_8" d="M20.9738 9.94055L25.9377 4.97117C24.6203 6.28807 22.8338 7.02788 20.9711 7.02788C19.1083 7.02788 17.3218 6.28807 16.0044 4.97117L11.0351 0.00175476L6.06567 4.97117L11.0351 9.94055L16.0044 14.91L20.9738 9.94055Z" fill="#8783D1"/>
</g>
</svg>
