<svg width="80" height="80" viewBox="0 0 80 80" fill="none" xmlns="http://www.w3.org/2000/svg">
<path fill-rule="evenodd" clip-rule="evenodd" d="M40.0001 4.16675C38.1294 4.16675 36.6054 4.95378 35.2187 6.01201C33.9197 7.00305 32.4869 8.43591 30.8107 10.1123L30.6928 10.2302C28.9773 11.9457 27.4817 12.6209 25.1737 12.6209C24.8844 12.6209 24.5194 12.6107 24.1071 12.5991C23.0504 12.5693 21.6833 12.5309 20.4872 12.6343C18.7377 12.7856 16.5511 13.2644 14.8916 14.9379C13.2447 16.5986 12.7776 18.7761 12.6308 20.5147C12.5308 21.6999 12.5692 23.0568 12.5989 24.106C12.6106 24.5193 12.621 24.885 12.621 25.1736C12.621 27.4817 11.9458 28.9772 10.2301 30.6929L10.1123 30.8107C8.43591 32.4869 7.00305 33.9197 6.01201 35.2184C4.95381 36.6054 4.16678 38.1294 4.16675 40.0001C4.16678 41.8704 4.95385 43.3944 6.01201 44.7814C7.00325 46.0807 8.43645 47.5137 10.1132 49.1904L10.2303 49.3074C11.3425 50.4194 11.8671 51.1407 12.1645 51.8214C12.454 52.4844 12.621 53.3237 12.621 54.8264C12.621 55.1157 12.6107 55.4807 12.5991 55.8931C12.5694 56.9497 12.5309 58.3167 12.6344 59.5131C12.7857 61.2624 13.2645 63.4491 14.938 65.1087C16.5988 66.7554 18.7763 67.2224 20.5148 67.3691C21.7 67.4694 23.0568 67.4307 24.106 67.4011C24.5194 67.3894 24.8851 67.3791 25.1736 67.3791C26.6443 67.3791 27.4709 67.5271 28.1216 67.7954C28.7716 68.0637 29.4669 68.5441 30.5142 69.5914C30.7377 69.8147 31.0322 70.1304 31.3718 70.4944C32.1384 71.3161 33.1358 72.3851 34.0667 73.1987C35.4791 74.4334 37.5054 75.8334 40.0001 75.8334C42.4951 75.8334 44.5211 74.4334 45.9337 73.1987C46.8644 72.3851 47.8611 71.3171 48.6274 70.4954C48.9674 70.1307 49.2624 69.8151 49.4861 69.5911C50.5331 68.5441 51.2284 68.0637 51.8784 67.7954C52.5291 67.5271 53.3558 67.3791 54.8264 67.3791C55.1151 67.3791 55.4807 67.3894 55.8941 67.4011C56.9434 67.4307 58.3001 67.4694 59.4854 67.3691C61.2237 67.2224 63.4014 66.7554 65.0621 65.1087C66.7357 63.4491 67.2144 61.2624 67.3657 59.5131C67.4691 58.3167 67.4307 56.9497 67.4011 55.8931C67.3894 55.4811 67.3791 55.1154 67.3791 54.8264C67.3791 53.3237 67.5461 52.4844 67.8357 51.8214C68.1331 51.1407 68.6577 50.4194 69.7697 49.3074L69.8871 49.1904C71.5638 47.5137 72.9971 46.0807 73.9881 44.7814C75.0464 43.3944 75.8334 41.8704 75.8334 40.0001C75.8334 38.1294 75.0464 36.6054 73.9881 35.2184C72.9971 33.9197 71.5644 32.487 69.8881 30.8108L69.7701 30.6929C68.6577 29.5806 68.1331 28.8594 67.8357 28.1785C67.5461 27.5157 67.3791 26.6763 67.3791 25.1736C67.3791 24.8845 67.3894 24.5198 67.4011 24.1079C67.4307 23.0512 67.4691 21.6833 67.3657 20.4872C67.2144 18.7377 66.7357 16.5512 65.0624 14.8916C63.4017 13.2447 61.2241 12.7776 59.4854 12.6308C58.3001 12.5307 56.9434 12.5691 55.8941 12.5989C55.4807 12.6106 55.1151 12.6209 54.8264 12.6209C52.5177 12.6209 51.0224 11.9454 49.3074 10.2302L49.1894 10.1123C47.5131 8.43591 46.0804 7.00305 44.7814 6.01201C43.3947 4.95378 41.8707 4.16675 40.0001 4.16675ZM52.5524 33.8107C53.7364 32.4012 53.5537 30.2985 52.1441 29.1145C50.7344 27.9304 48.6317 28.1132 47.4477 29.5228L35.6574 43.5587L32.2202 40.4897C30.8469 39.2637 28.7397 39.3831 27.5136 40.7564C26.2875 42.1294 26.4068 44.2367 27.78 45.4627L33.7801 50.8201C34.4524 51.4204 35.3394 51.7227 36.2387 51.6584C37.1377 51.5938 37.9727 51.1677 38.5524 50.4774L52.5524 33.8107Z" fill="#F1FBF8"/>
</svg>
